HIERARCHY
ROOT Hips
{
	OFFSET 0.00000 0.00000 0.00000
	CHANNELS 6 Xposition Yposition Zposition Yrotation Zrotation Xrotation 
	JOINT Lumbar
	{
		OFFSET 0 0 0
		CHANNELS 3 Zrotation Xrotation Yrotation
		JOINT Neck
		{
			OFFSET 0.00 0.2701 0.00
			CHANNELS 3 Zrotation Xrotation Yrotation
			End Site
			{
				OFFSET 0.00 0.1379 0.00
			}
		}
		JOINT RightShoulder
		{
			OFFSET 0.0119 0.2289 0.1181
			CHANNELS 3 Zrotation Xrotation Yrotation
			JOINT RightElbow
			{
				OFFSET 0.00 -0.1475 0.00
				CHANNELS 2 Zrotation Yrotation
				JOINT RightWrist
				{
					OFFSET 0.00 -0.1605 0.00
					CHANNELS 2 Zrotation Xrotation
					End Site
					{
						OFFSET 0.0040 -0.1068 0.0006
					}
				}
			}
		}
		JOINT LeftShoulder
		{
			OFFSET 0.0119 0.2289 -0.1181
			CHANNELS 3 Zrotation Xrotation Yrotation
			JOINT LeftElbow
			{
				OFFSET 0.00 -0.1475 0.00
				CHANNELS 2 Zrotation Yrotation
				JOINT LeftWrist
				{
					OFFSET 0.00 -0.1605 0.00
					CHANNELS 2 Zrotation Xrotation
					End Site
					{
						OFFSET 0.0040 -0.1068 -0.0006
					}
				}
			}
		}
	}
	JOINT RightHip
	{
		OFFSET 0.0316 -0.0424 0.0458
		CHANNELS 3 Zrotation Xrotation Yrotation
		JOINT RightKnee
		{
			OFFSET 0.00 -0.2438 0.00
			CHANNELS 1 Zrotation
			JOINT RightAnkle
			{
				OFFSET 0.00 -0.2449 0.00
				CHANNELS 3 Zrotation Xrotation Yrotation
				End Site
				{
					OFFSET 0.1237 -0.0542 0.0051
				}
			}
		}
	}
	JOINT LeftHip
	{
		OFFSET 0.0316 -0.0424 -0.0458
		CHANNELS 3 Zrotation Xrotation Yrotation
		JOINT LeftKnee
		{
			OFFSET 0.00 -0.2438 0.00
			CHANNELS 1 Zrotation
			JOINT LeftAnkle
			{
				OFFSET 0.00 -0.2449 0.00
				CHANNELS 3 Zrotation Xrotation Yrotation
				End Site
				{
					OFFSET 0.1237 -0.0542 -0.0051
				}
			}
		}
	}
}
MOTION
Frames: 20
Frame Time: 0.02
0 0.57926 -0 180.24817 0 -5.41319 3.96268 6.22463 -1.7518 -15.04016 3.21125 -0.59002 7.61227 -16.48418 5.92678 11.83938 81.28649 -2.27149 -4.28329 8.50738 11.35526 -8.04799 11.64164 -73.06887 -3.93348 4.16805 -6.27703 6.55584 -15.96041 -4.77799 -13.29613 -1.44396 -8.51404 -7.5516 8.12274 21.8923 -1.02947 -7.57737 2.09869 6.62228
-0.00021 0.57922 0.00016 180.18301 0 -5.41527 4.02711 6.24148 -1.79065 -15.15844 3.20756 -0.5825 7.72787 -16.48945 5.92322 11.86484 81.32462 -2.28111 -4.29343 8.60701 11.35023 -8.04942 11.64153 -74.89919 -4.06051 4.03418 -6.29913 6.54151 -15.9188 -4.75693 -13.28321 -1.44144 -8.4942 -7.57028 8.10971 21.94073 -1.06293 -7.52291 2.10547 6.61712
-0.00042 0.57917 0.00032 180.11794 0 -5.41736 4.09124 6.25825 -1.8294 -15.27572 3.2039 -0.57488 7.84239 -16.49466 5.91972 11.89007 81.36251 -2.2906 -4.30343 8.70576 11.34514 -8.05084 11.64141 -76.71514 -4.18655 3.9013 -6.32117 6.5272 -15.87737 -4.73592 -13.27044 -1.43899 -8.47424 -7.58906 8.09665 21.98914 -1.09601 -7.4688 2.11259 6.61198
-0.00062 0.57913 0.00048 180.0525 0 -5.41964 4.15499 6.27505 -1.86796 -15.39082 3.2003 -0.56668 7.95433 -16.49978 5.91631 11.91462 81.39954 -2.29964 -4.31294 8.80246 11.33969 -8.05195 11.64116 -78.49084 -4.30984 3.77102 -6.34344 6.51301 -15.83664 -4.71437 -13.25813 -1.43681 -8.45318 -7.60661 8.08432 22.03736 -1.13186 -7.41331 2.11975 6.60706
-0.00083 0.57908 0.00063 179.98893 0 -5.42105 4.22096 6.2919 -1.90731 -15.51826 3.1964 -0.56145 8.08071 -16.50547 5.91231 11.94279 81.4408 -2.31099 -4.32498 8.91064 11.33605 -8.05434 11.6415 -80.479 -4.44765 3.62687 -6.36479 6.49838 -15.79265 -4.69507 -13.24341 -1.43325 -8.43742 -7.6285 8.06927 22.08587 -1.15774 -7.36243 2.12508 6.60123
-0.00104 0.57904 0.00079 179.92153 0 -5.42424 4.28204 6.30851 -1.94509 -15.61894 3.19309 -0.55002 8.17589 -16.50986 5.90964 11.96327 81.47326 -2.31749 -4.33169 8.994 11.32866 -8.05428 11.64066 -82.01632 -4.55466 3.51226 -6.38786 6.48456 -15.75527 -4.67143 -13.23378 -1.43257 -8.41084 -7.64266 8.05923 22.13421 -1.2015 -7.30367 2.13534 6.59716
-0.00127 0.579 0.00097 179.84065 0 -5.43321 4.33196 6.32575 -1.97809 -15.65045 3.19173 -0.51981 8.189 -16.51156 5.91012 11.96222 81.47996 -2.30997 -4.32314 9.01241 11.30991 -8.04505 11.63581 -82.30082 -4.57589 3.47877 -6.41848 6.47391 -15.73869 -4.63107 -13.23853 -1.44037 -8.34926 -7.6221 8.06983 22.17911 -1.32601 -7.20441 2.15041 6.59954
-0.00149 0.57897 0.00114 179.75633 0 -5.44385 4.37659 6.34256 -2.00955 -15.65428 3.19089 -0.48361 8.17002 -16.51178 5.91204 11.95344 81.47802 -2.29767 -4.30928 9.00526 11.28757 -8.03377 11.62991 -82.13177 -4.56616 3.47517 -6.45042 6.46391 -15.72831 -4.58706 -13.24838 -1.45099 -8.27761 -7.59567 8.08446 22.22429 -1.46404 -7.09991 2.17159 6.60347
-0.00171 0.57893 0.00132 179.6754 0 -5.45317 4.42214 6.35872 -2.0421 -15.66755 3.18962 -0.45121 8.16292 -16.51208 5.91365 11.94839 81.48104 -2.28798 -4.29821 9.00728 11.2675 -8.02503 11.62498 -82.17578 -4.57108 3.45816 -6.47994 6.45296 -15.71341 -4.54783 -13.25568 -1.45996 -8.21382 -7.58124 8.09254 22.27151 -1.57424 -7.01068 2.19632 6.60559
-0.00195 0.57889 0.0015 179.58683 0 -5.46484 4.47381 6.37835 -2.07321 -15.69342 3.18922 -0.41429 8.16665 -16.51486 5.9138 11.94247 81.47985 -2.27647 -4.28564 9.01902 11.24468 -8.00958 11.61798 -82.19101 -4.57359 3.4404 -6.51698 6.44468 -15.70566 -4.49572 -13.26392 -1.47047 -8.13621 -7.52947 8.11964 22.31015 -1.77145 -6.86962 2.19636 6.61216
-0.00215 0.57886 0.00167 179.51329 0 -5.47205 4.51165 6.39076 -2.1067 -15.68728 3.18705 -0.3853 8.14092 -16.51213 5.91735 11.93648 81.4852 -2.26758 -4.27483 9.00522 11.22682 -8.00751 11.61502 -82.15769 -4.57373 3.43134 -6.53887 6.43111 -15.68452 -4.46918 -13.27146 -1.47848 -8.08499 -7.55149 8.10922 22.36599 -1.79628 -6.83206 2.24677 6.61012
-0.00223 0.5789 0.00182 179.4827 0 -5.46608 4.51104 6.38255 -2.14932 -15.59244 3.18059 -0.38033 8.03575 -16.4944 5.92944 11.93254 81.51236 -2.26728 -4.27104 8.92042 11.22263 -8.04371 11.62366 -82.10819 -4.57525 3.43865 -6.51681 6.40197 -15.62335 -4.51736 -13.27547 -1.47863 -8.11042 -7.80145 7.98424 22.47569 -1.29284 -7.10935 2.45677 6.58128
-0.00227 0.57897 0.00197 179.46726 0 -5.45565 4.49698 6.36726 -2.19401 -15.46766 3.17218 -0.38343 7.9032 -16.47119 5.94487 11.92871 81.5461 -2.26973 -4.26906 8.81204 11.22371 -8.09321 11.63633 -82.02422 -4.57538 3.45375 -6.47977 6.36766 -15.54781 -4.59077 -13.27875 -1.47626 -8.16347 -8.1219 7.82311 22.6015 -0.62406 -7.48609 2.71347 6.5442
-0.00233 0.57902 0.00213 179.44447 0 -5.44757 4.49011 6.35575 -2.23632 -15.36122 3.16417 -0.38243 7.78708 -16.45056 5.95923 11.92462 81.57575 -2.27077 -4.26566 8.7189 11.22297 -8.13621 11.64704 -81.95149 -4.57593 3.46552 -6.45076 6.33618 -15.48111 -4.65049 -13.28246 -1.47517 -8.20181 -8.39486 7.68524 22.71568 -0.06379 -7.79865 2.93391 6.51263
-0.00238 0.57907 0.00228 179.42348 0 -5.43822 4.47854 6.34183 -2.28458 -15.23383 3.15825 -0.38305 7.65291 -16.42947 5.97223 11.92119 81.60972 -2.27234 -4.26453 8.60585 11.21971 -8.18142 11.65836 -81.88156 -4.57635 3.47747 -6.41667 6.30257 -15.40887 -4.71949 -13.28557 -1.47345 -8.24501 -8.73181 7.51916 22.848 0.63463 -8.18986 3.21664 6.4737
-0.00244 0.57912 0.00244 179.40246 0 -5.4304 4.47361 6.33126 -2.32103 -15.14333 3.14751 -0.38229 7.55036 -16.4081 5.98822 11.91646 81.63641 -2.27351 -4.25926 8.52892 11.22293 -8.22479 11.66928 -81.80359 -4.57706 3.49046 -6.38956 6.27232 -15.33965 -4.77517 -13.29015 -1.47261 -8.28964 -8.9536 7.40261 22.94643 1.0876 -8.44258 3.38239 6.44808
-0.00252 0.57913 0.00261 179.37708 0 -5.42814 4.49029 6.33164 -2.32392 -15.16194 3.12387 -0.37563 7.54099 -16.38693 6.01719 11.90857 81.6412 -2.27281 -4.24152 8.55818 11.2434 -8.26375 11.67883 -81.71349 -4.57951 3.50476 -6.38553 6.25107 -15.32866 -4.78835 -13.2948 -1.47309 -8.28684 -8.82871 7.43669 22.94677 0.79786 -8.27454 3.19867 6.4616
-0.00262 0.57913 0.0028 179.35133 0 -5.42752 4.51411 6.33563 -2.31498 -15.21872 3.0955 -0.36734 7.56459 -16.36579 6.04817 11.89934 81.63854 -2.27165 -4.21974 8.62446 11.27007 -8.29982 11.68772 -81.61857 -4.58236 3.51963 -6.38901 6.23357 -15.31484 -4.78724 -13.30153 -1.47481 -8.29072 -8.58763 7.52092 22.91257 0.26007 -7.96638 2.8983 6.4887
-0.00271 0.57914 0.00298 179.32609 0 -5.426 4.53476 6.33803 -2.31173 -15.25842 3.06927 -0.35987 7.57401 -16.34481 6.07439 11.89041 81.63947 -2.27076 -4.20022 8.67366 11.29354 -8.33448 11.69641 -81.52697 -4.58477 3.53388 -6.38899 6.21548 -15.26894 -4.79232 -13.31027 -1.47711 -8.32363 -8.4073 7.57889 22.89457 -0.14807 -7.73154 2.66128 6.50936
-0.0028 0.57914 0.00316 179.29972 0 -5.42502 4.55481 6.34005 -2.30713 -15.29657 3.04283 -0.35231 7.57961 -16.32272 6.11634 11.88266 81.63974 -2.26969 -4.17885 8.72372 11.31894 -8.38053 11.70729 -81.42872 -4.58817 3.54994 -6.38886 6.19292 -15.35391 -4.79938 -13.30728 -1.47462 -8.23111 -8.19598 7.65027 22.875 -0.62199 -7.45932 2.38264 6.53096
